<?xml version="1.0" encoding="UTF-8"?>
<svg version="1.1" xmlns="http://www.w3.org/2000/svg" width="783" height="190">
<path d="M0 0 C1.64267542 1.54390696 3.26795281 3.10654124 4.875 4.6875 C5.6484375 5.44804688 6.421875 6.20859375 7.21875 6.9921875 C18.87644427 19.1688887 26.45596344 34.86516504 27.875 51.6875 C24.10549909 54.21033001 20.33415119 56.73038605 16.5625 59.25 C15.50998047 59.95447266 14.45746094 60.65894531 13.37304688 61.38476562 C3.55077435 67.94302143 -6.22850356 74.43184219 -16.6875 79.9375 C-17.46029297 80.35773438 -18.23308594 80.77796875 -19.02929688 81.2109375 C-25.79830638 84.78956596 -33.29329892 88.36045346 -41.125 87.6875 C-43.125 85.6875 -43.125 85.6875 -43.16796875 81.92578125 C-42.21759653 74.98459552 -38.64875812 68.99459817 -35.4375 62.875 C-34.81703978 61.66929795 -34.19789085 60.46292017 -33.58007812 59.25585938 C-31.77108785 55.7282102 -29.94757905 52.20814799 -28.125 48.6875 C-26.99132465 46.4940126 -25.86331931 44.29758131 -24.7421875 42.09765625 C-24.26507324 41.16703369 -23.78795898 40.23641113 -23.29638672 39.27758789 C-21.55323839 35.42326096 -20.52560944 31.91478076 -21.125 27.6875 C-23.56948474 21.55406555 -28.21771303 16.64114349 -34.125 13.6875 C-40.3970239 12.61992146 -43.95806738 14.9458813 -49.1015625 18.43359375 C-54.12716369 22.18006906 -58.84879809 26.24791861 -63.57568359 30.36035156 C-65.81561941 32.27908637 -68.12853931 34.1027936 -70.4375 35.9375 C-76.03498477 40.48134058 -81.25123031 45.40178989 -86.46801758 50.37207031 C-97.31220094 60.6875 -97.31220094 60.6875 -100.125 60.6875 C-99.56765029 56.51298805 -98.2170013 53.97306086 -95.78125 50.5625 C-95.11222656 49.60859375 -94.44320312 48.6546875 -93.75390625 47.671875 C-92.33463542 45.68229167 -90.91536458 43.69270833 -89.49609375 41.703125 C-88.82707031 40.74921875 -88.15804687 39.7953125 -87.46875 38.8125 C-86.85193359 37.94882813 -86.23511719 37.08515625 -85.59960938 36.1953125 C-84.06856604 33.59152489 -83.40765122 31.68410316 -83.125 28.6875 C-85.18382181 23.99796144 -88.56747394 20.96626303 -93.125 18.6875 C-96.78964606 18.2803171 -98.54667649 18.29309384 -101.63305664 20.39794922 C-104.1463616 22.70712664 -105.5534235 24.65452574 -107.18359375 27.6328125 C-107.72773926 28.61523926 -108.27188477 29.59766602 -108.83251953 30.60986328 C-109.40341309 31.6667334 -109.97430664 32.72360352 -110.5625 33.8125 C-111.16433105 34.90675293 -111.76616211 36.00100586 -112.38623047 37.12841797 C-114.3125807 40.640998 -116.22152418 44.16250048 -118.125 47.6875 C-118.77518607 48.88934553 -119.42541391 50.09116846 -120.07568359 51.29296875 C-123.1181361 56.92016517 -126.14727143 62.55431733 -129.1640625 68.1953125 C-131.41839401 72.40026102 -133.72902765 76.5617525 -136.125 80.6875 C-140.06148621 76.75101379 -139.3044684 70.06925811 -139.375 64.75 C-139.16778474 41.42677093 -130.25623654 20.43037261 -114.125 3.6875 C-83.43975726 -26.44447207 -32.46914689 -28.44819991 0 0 Z " fill="#0C66E4" transform="translate(149.125,29.3125)"/>
<path d="M0 0 C-0.58775332 3.41678593 -1.45332565 6.33321539 -2.890625 9.484375 C-3.26840088 10.32911377 -3.64617676 11.17385254 -4.03540039 12.04418945 C-4.43621826 12.93710693 -4.83703613 13.83002441 -5.25 14.75 C-8.20864339 21.50765677 -10.95234671 28.2391637 -13.0625 35.3125 C-13.26584961 35.97411133 -13.46919922 36.63572266 -13.67871094 37.31738281 C-15.31511408 43.09620682 -15.86277133 48.50754948 -13.875 54.25 C-11.19418727 58.18185868 -8.56589428 60.29846336 -3.9140625 61.5703125 C23.61856547 65.86942717 53.64549983 41.91695696 74.62841797 27.53710938 C76.70628453 26.19036778 78.76091723 25.04987383 81 24 C80.91353523 43.62750371 71.15761528 62.64073083 57.64453125 76.38671875 C56.77183594 77.24910156 55.89914063 78.11148438 55 79 C54.34386719 79.66644531 53.68773437 80.33289063 53.01171875 81.01953125 C44.83707782 88.77406215 33.66289023 94.55122144 23 98 C22.13375 98.29777344 21.2675 98.59554687 20.375 98.90234375 C4.0300751 103.61889788 -15.02986336 102.54140122 -31 97 C-32.06089844 96.63777344 -33.12179688 96.27554688 -34.21484375 95.90234375 C-48.68953725 90.40680375 -62.68638478 80.1871138 -71 67 C-64.99369296 59.66127129 -58.19153387 53.12620576 -51.45239258 46.47290039 C-46.00894323 41.09262132 -40.63458705 35.7186257 -35.66137695 29.89282227 C-32.46169615 26.24739607 -29.00018792 22.85662255 -25.5625 19.4375 C-24.85029297 18.72142578 -24.13808594 18.00535156 -23.40429688 17.26757812 C-18.76741978 12.63912406 -13.97262191 8.26366103 -9 4 C-8.0925 3.195625 -7.185 2.39125 -6.25 1.5625 C-4 0 -4 0 0 0 Z " fill="#0C66E4" transform="translate(97,76)"/>
<path d="M0 0 C0.74121094 -0.03996094 1.48242188 -0.07992187 2.24609375 -0.12109375 C8.78788231 1.45643705 13.4410403 10.3207082 17.25 15.375 C17.95390869 16.30489746 18.65781738 17.23479492 19.38305664 18.19287109 C23.47214783 23.61284795 27.53146121 29.05350711 31.5 34.5625 C31.90629639 35.12316162 32.31259277 35.68382324 32.73120117 36.26147461 C34.43722677 38.66027959 35.62369171 40.62107512 36.5625 43.4375 C37.2225 43.4375 37.8825 43.4375 38.5625 43.4375 C38.83924561 42.85444092 39.11599121 42.27138184 39.40112305 41.6706543 C40.51441375 39.52996268 41.73316903 37.66097319 43.14453125 35.70703125 C43.91518921 34.63799561 43.91518921 34.63799561 44.70141602 33.54736328 C45.25369873 32.7892334 45.80598145 32.03110352 46.375 31.25 C46.94597412 30.46351074 47.51694824 29.67702148 48.10522461 28.86669922 C52.22104022 23.221734 56.39581761 17.62299035 60.625 12.0625 C61.16036377 11.35585205 61.69572754 10.6492041 62.24731445 9.92114258 C69.27347141 0.75110982 69.27347141 0.75110982 72.74609375 -0.09375 C76.78092487 -0.0378078 79.0310828 0.11643544 82.5625 2.25 C86.39100399 6.43742624 85.71680616 11.13681035 85.72363281 16.49536133 C85.73108017 17.88607597 85.73108017 17.88607597 85.73867798 19.30488586 C85.7532999 22.37644184 85.76010177 25.44794617 85.765625 28.51953125 C85.77137656 30.65321352 85.77713429 32.78689577 85.78289795 34.920578 C85.79340811 39.39700563 85.79925064 43.87341529 85.80273438 48.34985352 C85.80821822 54.08321007 85.83224397 59.81632904 85.86070633 65.54961109 C85.87933892 69.95827424 85.88453865 74.36688025 85.88607025 78.77557945 C85.88909604 80.88906846 85.89712208 83.00255648 85.91025543 85.11600685 C85.92732818 88.07467293 85.92543252 91.0327596 85.91894531 93.99145508 C85.9281601 94.86284119 85.93737488 95.73422729 85.9468689 96.63201904 C85.91254398 101.6346732 85.36652604 105.11242411 82.5625 109.4375 C80.00433084 110.71658458 78.04402006 110.67724681 75.1875 110.75 C73.75277344 110.80607422 73.75277344 110.80607422 72.2890625 110.86328125 C68.71659497 110.30540308 67.77042938 109.27118411 65.5625 106.4375 C65.04351807 103.37493896 65.04351807 103.37493896 65.01660156 99.74121094 C65.00626389 99.07738403 64.99592621 98.41355713 64.98527527 97.72961426 C64.95586354 95.5434531 64.95434857 93.35821839 64.953125 91.171875 C64.93814209 89.65299719 64.9214147 88.13413567 64.90301514 86.61529541 C64.8593411 82.62373097 64.83934266 78.63238629 64.82427979 74.640625 C64.8047087 70.56497197 64.76273877 66.48955629 64.72265625 62.4140625 C64.6473537 54.4219371 64.59706278 46.42990491 64.5625 38.4375 C64.22582306 38.91615005 63.88914612 39.39480011 63.54226685 39.88795471 C61.98994823 42.09385929 60.43638789 44.29888663 58.8828125 46.50390625 C58.35341064 47.2565979 57.82400879 48.00928955 57.27856445 48.78479004 C45.48672376 65.51327624 45.48672376 65.51327624 41.5625 69.4375 C37.35572922 70.00379607 35.2743873 69.92686098 31.73828125 67.49609375 C27.70813309 63.94434447 24.93080291 59.52256756 22 55.0625 C20.89514314 53.40844528 19.78968364 51.75479293 18.68359375 50.1015625 C18.2033374 49.37404785 17.72308105 48.6465332 17.22827148 47.89697266 C15.06382448 44.70121725 12.8144358 41.57222516 10.5625 38.4375 C10.55885437 39.28052673 10.55520874 40.12355347 10.55145264 40.99212646 C10.51358216 48.93783405 10.45674051 56.88313079 10.37859726 64.82854843 C10.3390918 68.91338455 10.30691863 72.99800411 10.29150391 77.08300781 C10.27635714 81.02549676 10.24194794 84.96739049 10.19419098 88.90961456 C10.17935653 90.41344275 10.1714578 91.9173559 10.17061615 93.42125702 C10.16825073 95.5285534 10.14121062 97.63419909 10.10839844 99.74121094 C10.09951599 100.94034119 10.09063354 102.13947144 10.08148193 103.37493896 C9.46138844 107.03416879 8.4880164 108.22173269 5.5625 110.4375 C1.8485035 111.1802993 -1.70048144 111.01111531 -5.4375 110.4375 C-8.60370095 108.25131363 -9.2271387 107.06858389 -10.4375 103.4375 C-10.53958176 100.40538153 -10.58432702 97.39615313 -10.58276367 94.36376953 C-10.58780159 92.97064545 -10.58780159 92.97064545 -10.59294128 91.54937744 C-10.60245573 88.47300893 -10.60439467 85.39669482 -10.60546875 82.3203125 C-10.60868106 80.18423439 -10.61204511 78.0481565 -10.61555481 75.91207886 C-10.62154736 71.43145233 -10.62339459 66.9508451 -10.62280273 62.47021484 C-10.62270112 56.72784474 -10.63635197 50.98559831 -10.65357494 45.24325752 C-10.66469184 40.830347 -10.66672203 36.4174664 -10.66619301 32.0045433 C-10.66737364 29.88744557 -10.67180009 27.77034707 -10.67952538 25.65326309 C-10.68931859 22.69209374 -10.68644975 19.73119318 -10.68041992 16.77001953 C-10.68603943 15.89503815 -10.69165894 15.02005676 -10.69744873 14.11856079 C-10.67516051 9.81289487 -10.56939981 6.30690303 -8.4375 2.4375 C-5.71155986 0.54144438 -3.28613283 0.09681847 0 0 Z " fill="#0C66E4" transform="translate(457.4375,38.5625)"/>
<path d="M0 0 C1.12535156 -0.05994141 1.12535156 -0.05994141 2.2734375 -0.12109375 C9.02578879 1.4828701 12.69130242 9.93602048 16.0625 15.375 C17.30578495 17.35559722 18.54928061 19.33606218 19.79296875 21.31640625 C20.42638184 22.32977051 21.05979492 23.34313477 21.71240234 24.38720703 C24.73859271 29.21350553 27.8086229 34.0116754 30.875 38.8125 C36.51721628 47.65085524 42.07548951 56.540776 47.625 65.4375 C47.62642502 64.69691849 47.62785004 63.95633698 47.62931824 63.1933136 C47.64716848 56.20442617 47.68884178 49.21604019 47.75709057 42.22747517 C47.79134128 38.63471996 47.81646738 35.04238907 47.82055664 31.44946289 C47.82484401 27.98015892 47.85334016 24.51181177 47.89843178 21.04280663 C47.9176893 19.07927446 47.91205357 17.11554919 47.90605164 15.15193176 C48.06856148 5.21700226 48.06856148 5.21700226 51.01074219 2.12597656 C55.19018331 -0.57340846 58.82250175 -0.46296842 63.625 0.4375 C66.20137471 2.32265223 67.22167428 3.63084857 68.625 6.4375 C68.73952218 9.52311589 68.79288881 12.58665847 68.80200195 15.6730957 C68.80857315 16.63095978 68.81514435 17.58882385 68.82191467 18.57571411 C68.84167313 21.75490389 68.85331559 24.9340464 68.86328125 28.11328125 C68.86735678 29.19743002 68.8714323 30.28157879 68.87563133 31.39858055 C68.89650235 37.13607977 68.91079995 42.87355499 68.92016602 48.61108398 C68.93123615 54.54305034 68.96564034 60.47464217 69.00533772 66.40647602 C69.03145813 70.96264859 69.03985377 75.51873129 69.04344749 80.07497215 C69.04832482 82.26186848 69.05997122 84.44876049 69.07848549 86.63558388 C69.10278051 89.69526645 69.1019294 92.75397161 69.0949707 95.8137207 C69.10778076 96.71832535 69.12059082 97.62292999 69.13378906 98.5549469 C69.09934646 102.70654155 68.9632732 104.88668301 66.74577332 108.4974823 C64.21848185 110.8093702 63.07574409 111.11470715 59.6875 111.0625 C58.43646484 111.08183594 58.43646484 111.08183594 57.16015625 111.1015625 C51.05260299 109.50174115 47.85391893 103.05211272 44.6875 98 C44.21932861 97.26483154 43.75115723 96.52966309 43.26879883 95.7722168 C42.25162604 94.17347028 41.23732705 92.57289252 40.22558594 90.97070312 C38.58685948 88.37713605 36.93916717 85.78946603 35.2890625 83.203125 C33.07893082 79.73763606 30.8714649 76.27049296 28.66796875 72.80078125 C22.66057944 63.34194676 16.64149847 53.89054175 10.625 44.4375 C10.62135437 45.20535828 10.61770874 45.97321655 10.61395264 46.76434326 C10.57607254 54.00372412 10.5192207 61.24259036 10.44109726 68.48163986 C10.40160173 72.20327254 10.36942382 75.92466789 10.35400391 79.64648438 C10.33885039 83.2388727 10.30442976 86.83060868 10.25669098 90.4227066 C10.24186339 91.79255755 10.23395819 93.16250163 10.23311615 94.53243256 C10.23074929 96.45239632 10.20140188 98.37226929 10.17089844 100.29199219 C10.16201599 101.38453308 10.15313354 102.47707397 10.14398193 103.60272217 C9.5038871 107.09904163 8.4050205 108.28704124 5.625 110.4375 C1.9110035 111.1802993 -1.63798144 111.01111531 -5.375 110.4375 C-8.54120095 108.25131363 -9.1646387 107.06858389 -10.375 103.4375 C-10.48221407 100.40552234 -10.53227649 97.39619631 -10.53613281 94.36376953 C-10.54109772 93.43502014 -10.54606262 92.50627075 -10.55117798 91.54937744 C-10.56579848 88.47301496 -10.57260113 85.39670403 -10.578125 82.3203125 C-10.58387617 80.1842346 -10.58963391 78.04815672 -10.59539795 75.91207886 C-10.60590736 71.43145507 -10.61175055 66.95084923 -10.61523438 62.47021484 C-10.62072154 56.72779202 -10.6447547 50.98560603 -10.67320633 45.24325752 C-10.69182517 40.83034572 -10.69703789 36.41749107 -10.69857025 32.0045433 C-10.70159858 29.88743672 -10.70963314 27.77033118 -10.72275543 25.65326309 C-10.73980132 22.69199822 -10.73793924 19.7313135 -10.73144531 16.77001953 C-10.7406601 15.89503815 -10.74987488 15.02005676 -10.7593689 14.11856079 C-10.72699246 9.40787739 -10.47407106 6.23724986 -7.375 2.4375 C-4.35292605 0.42278403 -3.45773301 0.10030966 0 0 Z " fill="#0C66E4" transform="translate(706.375,38.5625)"/>
<path d="M0 0 C0.7321875 -0.00128906 1.464375 -0.00257812 2.21875 -0.00390625 C6.94446179 1.16942973 9.50016949 4.33063989 12.0078125 8.29296875 C12.88881893 9.77355598 13.76074729 11.25957115 14.625 12.75 C15.59834371 14.38525698 16.57365179 16.01934609 17.55078125 17.65234375 C18.28868896 18.88960205 18.28868896 18.88960205 19.04150391 20.15185547 C21.22202162 23.75587822 23.50827687 27.28672006 25.8125 30.8125 C30.90212505 38.6183353 35.91141256 46.47356678 40.90551758 54.34082031 C41.47423584 55.23639648 42.0429541 56.13197266 42.62890625 57.0546875 C43.13494385 57.85245605 43.64098145 58.65022461 44.16235352 59.47216797 C45.25599415 61.18119354 46.37451641 62.87427462 47.5 64.5625 C47.50586624 63.84697464 47.51173248 63.13144928 47.51777649 62.39424133 C47.57575464 55.64087574 47.64786036 48.88782465 47.73571491 42.13477802 C47.78038373 38.66319934 47.81964707 35.19173706 47.84643555 31.7199707 C47.87749455 27.7257744 47.93228188 23.73220632 47.98828125 19.73828125 C47.99467117 18.49540848 48.0010611 17.25253571 48.00764465 15.97200012 C48.02743881 14.81117416 48.04723297 13.65034821 48.06762695 12.4543457 C48.07873001 11.43508499 48.08983307 10.41582428 48.10127258 9.36567688 C48.56408036 6.1119953 49.57531525 4.2053784 51.5 1.5625 C53.90513021 0.35993489 55.62853564 0.2921223 58.3125 0.1875 C59.59060547 0.11402344 59.59060547 0.11402344 60.89453125 0.0390625 C64.80360932 0.82439453 66.07473205 2.42120398 68.5 5.5625 C69.23098822 8.82078628 69.17339324 12.00997735 69.13110352 15.33813477 C69.13825882 16.31755035 69.14541412 17.29696594 69.15278625 18.30606079 C69.16967675 21.5391523 69.15026919 24.77085806 69.12890625 28.00390625 C69.12973484 30.25162369 69.13219386 32.49934106 69.13621521 34.74705505 C69.13907338 39.45549784 69.12436832 44.16346497 69.09692383 48.87182617 C69.06282197 54.91040071 69.06886589 60.94812573 69.0875864 66.98674107 C69.09814831 71.62699987 69.08922616 76.26706057 69.07420158 80.90730095 C69.06901472 83.13406728 69.06950766 85.36085425 69.07574654 87.58761787 C69.08118956 90.69761884 69.06085264 93.80639798 69.03344727 96.91625977 C69.03997314 97.83844803 69.04649902 98.76063629 69.05322266 99.71076965 C68.95982902 105.93558304 68.95982902 105.93558304 66.61680603 109.12998962 C64.08309711 110.84463152 62.60816401 111.12969286 59.5625 111.125 C58.72847656 111.14691406 57.89445312 111.16882813 57.03515625 111.19140625 C49.85054347 109.40909091 46.23308388 100.64466757 42.6875 94.8125 C41.35936036 92.65675837 40.02988814 90.50183727 38.69921875 88.34765625 C38.01263184 87.23406738 37.32604492 86.12047852 36.61865234 84.97314453 C33.14232234 79.35861722 29.56855603 73.80621782 26 68.25 C25.35442139 67.24420898 24.70884277 66.23841797 24.04370117 65.20214844 C22.87158439 63.37612664 21.69891773 61.55045754 20.52539062 59.7253418 C17.50649025 55.0110392 14.50388602 50.28637937 11.5 45.5625 C11.49413376 46.27580475 11.48826752 46.9891095 11.48222351 47.72402954 C11.42420201 54.46236705 11.35207163 61.20039077 11.26428509 67.93840981 C11.2196506 71.40211259 11.18037982 74.86569964 11.15356445 78.32958984 C11.12246237 82.31633392 11.06767551 86.30258676 11.01171875 90.2890625 C11.00213387 92.14562973 11.00213387 92.14562973 10.99235535 94.03970337 C10.80668574 104.92756547 10.80668574 104.92756547 7.5 109.5625 C4.94183084 110.84158458 2.98152006 110.80224681 0.125 110.875 C-1.30972656 110.93107422 -1.30972656 110.93107422 -2.7734375 110.98828125 C-5.5 110.5625 -5.5 110.5625 -7.6370697 109.13877869 C-10.46177842 105.23243991 -10.06677076 101.62528639 -10.03344727 96.91625977 C-10.04206284 95.9385965 -10.05067841 94.96093323 -10.05955505 93.9536438 C-10.08226773 90.72012904 -10.07546597 87.48747726 -10.06640625 84.25390625 C-10.07163967 82.00715374 -10.07791511 79.76040344 -10.08518982 77.51365662 C-10.09560401 72.80351426 -10.09101804 68.09367383 -10.07641602 63.38354492 C-10.05923177 57.34607804 -10.08271454 51.30956312 -10.11790562 45.27220249 C-10.139862 40.63190905 -10.13844224 35.99184396 -10.1301403 31.35151482 C-10.12931973 29.12555841 -10.13620325 26.89958541 -10.15091133 24.67367744 C-10.16832293 21.56123415 -10.15384155 18.4505088 -10.13110352 15.33813477 C-10.14279572 14.41797073 -10.15448792 13.4978067 -10.16653442 12.54975891 C-10.09937165 8.03336318 -9.96506767 6.15850109 -7.10313416 2.49082947 C-4.41005361 0.49587021 -3.29263711 -0.09854724 0 0 Z " fill="#0C66E4" transform="translate(233.5,38.4375)"/>
<path d="M0 0 C7.89287177 5.75612748 12.91641507 14.04265743 15.1875 23.4375 C15.61713688 27.4578257 15.65549304 31.44739585 15.65625 35.48828125 C15.66767029 37.19107491 15.66767029 37.19107491 15.67932129 38.92826843 C15.6900791 41.31926282 15.69299308 43.71030404 15.68847656 46.10131836 C15.68750558 49.72916345 15.72915421 53.35488208 15.7734375 56.98242188 C15.77864654 59.31770398 15.78133266 61.65299334 15.78125 63.98828125 C15.79764526 65.05742264 15.81404053 66.12656403 15.83093262 67.22810364 C15.73075482 78.32892056 12.02674069 87.53310729 4.28515625 95.53515625 C-4.92312172 103.88605266 -14.94792569 106.01446155 -27.1953125 105.71875 C-37.91945687 104.88490724 -46.33835574 100.45378069 -53.625 92.5625 C-58.95462322 86.1075967 -61.88735995 79.60603095 -62.00537109 71.21679688 C-62.02143402 70.17471069 -62.03749695 69.13262451 -62.05404663 68.05895996 C-62.09883106 63.2805261 -62.13959375 58.50222806 -62.16259766 53.72363281 C-62.17910564 51.21377253 -62.20632656 48.70395824 -62.24462891 46.19433594 C-62.29980738 42.55639502 -62.32133902 38.91955486 -62.3359375 35.28125 C-62.35860687 34.17454956 -62.38127625 33.06784912 -62.40463257 31.9276123 C-62.37652849 21.40298338 -59.21604078 11.87090305 -51.81640625 4.18359375 C-36.89345805 -8.81944298 -16.93335683 -10.05509141 0 0 Z M-38.8125 20.4375 C-42.31956312 25.84311561 -42.25047614 30.64795897 -42.2109375 36.875 C-42.21380768 37.87329834 -42.21667786 38.87159668 -42.21963501 39.90014648 C-42.22167082 42.00472584 -42.21617483 44.10932433 -42.20361328 46.21386719 C-42.18755316 49.42686456 -42.20347881 52.63860404 -42.22265625 55.8515625 C-42.22067373 57.90104443 -42.21682988 59.95052558 -42.2109375 62 C-42.21701019 62.95640381 -42.22308289 63.91280762 -42.2293396 64.89819336 C-42.17411469 70.16073289 -41.78847573 73.90635962 -38.8125 78.4375 C-34.00378276 83.03714258 -30.13130522 85.46049578 -23.5 85.8125 C-17.86166942 85.66239469 -13.34226181 83.84171531 -9.23828125 79.94140625 C-5.90794547 76.11485999 -4.69932185 73.07633428 -4.63549805 68.09301758 C-4.62266281 67.21813187 -4.60982758 66.34324615 -4.59660339 65.44184875 C-4.58921646 64.49810898 -4.58182953 63.5543692 -4.57421875 62.58203125 C-4.566147 61.60642746 -4.55807526 60.63082367 -4.54975891 59.62565613 C-4.53592469 57.5586423 -4.52519958 55.4916057 -4.51733398 53.42456055 C-4.50016019 50.27933792 -4.4562723 47.13517727 -4.41210938 43.99023438 C-4.40197857 41.97917437 -4.39346368 39.96810546 -4.38671875 37.95703125 C-4.36921066 37.02341263 -4.35170258 36.08979401 -4.33366394 35.12788391 C-4.35617538 28.27460446 -5.68921767 22.58753422 -10.63671875 17.59765625 C-20.45370102 11.8144864 -30.47435875 12.09935875 -38.8125 20.4375 Z " fill="#0C66E4" transform="translate(642.8125,44.5625)"/>
<path d="M0 0 C1.08477631 -0.01591187 2.16955261 -0.03182373 3.28720093 -0.04821777 C5.04503403 -0.0485199 5.04503403 -0.0485199 6.83837891 -0.04882812 C8.6453978 -0.06024841 8.6453978 -0.06024841 10.48892212 -0.07189941 C13.03930588 -0.08271356 15.58973398 -0.08554822 18.14013672 -0.08105469 C22.04290747 -0.08008361 25.9437053 -0.12166919 29.84619141 -0.16601562 C32.3227498 -0.17122332 34.79931504 -0.17391081 37.27587891 -0.17382812 C38.44371918 -0.19022339 39.61155945 -0.20661865 40.81478882 -0.22351074 C49.83408424 -0.14658853 49.83408424 -0.14658853 52.92651367 2.79858398 C55.72530757 6.95899518 55.59610309 10.58705955 54.68994141 15.41992188 C52.80478918 17.99629659 51.49659284 19.01659616 48.68994141 20.41992188 C45.77294866 20.50690415 42.88011592 20.5354411 39.96337891 20.51757812 C38.66915512 20.5154557 38.66915512 20.5154557 37.3487854 20.51329041 C34.5874691 20.50768375 31.82623328 20.49513015 29.06494141 20.48242188 C27.19515091 20.47740773 25.32535914 20.47284468 23.45556641 20.46875 C18.86696863 20.45856217 14.27854533 20.4389881 9.68994141 20.41992188 C9.68994141 28.00992188 9.68994141 35.59992188 9.68994141 43.41992188 C11.62998047 43.38511719 13.57001953 43.3503125 15.56884766 43.31445312 C18.13003689 43.28630819 20.69123552 43.25900879 23.25244141 43.23242188 C24.52925781 43.20728516 25.80607422 43.18214844 27.12158203 43.15625 C39.15384056 43.06249214 39.15384056 43.06249214 44.68994141 46.41992188 C45.9047473 48.84953367 45.92601408 50.58376304 46.00244141 53.29492188 C46.05851562 54.59042969 46.05851562 54.59042969 46.11572266 55.91210938 C45.53359587 59.34078272 44.438658 60.31188359 41.68994141 62.41992188 C38.29833984 62.87402344 38.29833984 62.87402344 34.29931641 62.81054688 C33.24239594 62.80205719 33.24239594 62.80205719 32.16412354 62.793396 C29.92202713 62.77107266 27.68155153 62.72088942 25.43994141 62.66992188 C23.91652705 62.64985139 22.39308755 62.63160157 20.86962891 62.61523438 C17.14194554 62.5746278 13.41774899 62.49634618 9.68994141 62.41992188 C9.68994141 71.32992187 9.68994141 80.23992187 9.68994141 89.41992188 C14.05986328 89.33291016 14.05986328 89.33291016 18.51806641 89.24414062 C21.34111814 89.20514177 24.16413983 89.1747848 26.98730469 89.14526367 C28.94870444 89.12012584 30.91001057 89.08601022 32.87109375 89.04272461 C35.69115285 88.98203979 38.50997334 88.95370546 41.33056641 88.93164062 C42.20674622 88.9058342 43.08292603 88.88002777 43.98565674 88.85343933 C50.0775309 88.85063556 50.0775309 88.85063556 53.24169922 91.79199219 C55.55520717 95.99000291 55.48535952 99.75766917 54.68994141 104.41992188 C52.49867324 107.51792169 51.27937805 108.22344299 47.68994141 109.41992188 C46.04460713 109.52201899 44.3955201 109.56832593 42.74707031 109.58105469 C41.24003036 109.595466 41.24003036 109.595466 39.70254517 109.61016846 C38.61815155 109.61441833 37.53375793 109.61866821 36.41650391 109.62304688 C34.74266129 109.63159698 34.74266129 109.63159698 33.03500366 109.64031982 C30.67292225 109.64977021 28.31082765 109.65630396 25.94873047 109.66015625 C22.3361919 109.66986477 18.7242215 109.7008897 15.11181641 109.73242188 C12.81754895 109.73895169 10.52327743 109.74420224 8.22900391 109.74804688 C6.60848618 109.76656708 6.60848618 109.76656708 4.95523071 109.78546143 C-4.76517173 109.75660687 -4.76517173 109.75660687 -8.31005859 106.41992188 C-10.77424532 101.84395501 -10.59312171 97.45377029 -10.56884766 92.39453125 C-10.57410461 91.04486015 -10.57410461 91.04486015 -10.57946777 89.66792297 C-10.58825545 86.69976032 -10.58244636 83.73183687 -10.57568359 80.76367188 C-10.57703109 78.69771275 -10.57897234 76.63175394 -10.58148193 74.5657959 C-10.58442918 70.23833188 -10.58014834 65.9109505 -10.57080078 61.58349609 C-10.55940653 56.03846408 -10.56596813 50.49362568 -10.57794571 44.94860077 C-10.58517504 40.68323306 -10.58287143 36.41791121 -10.57769012 32.15254211 C-10.5763566 30.10801673 -10.57799093 28.06348718 -10.58264923 26.01896667 C-10.58773203 23.16096988 -10.57997944 20.30328602 -10.56884766 17.4453125 C-10.57289612 16.60152542 -10.57694458 15.75773834 -10.58111572 14.88838196 C-10.54405302 9.7481492 -10.11613993 5.91475473 -7.01693726 1.63366699 C-4.63009726 -0.06359214 -2.91454585 0.02568559 0 0 Z " fill="#0C66E4" transform="translate(356.31005859375,39.580078125)"/>
</svg>
